<?xml version="1.0" encoding="utf-8"?>
<!-- Generator: Adobe Illustrator 28.1.0, SVG Export Plug-In . SVG Version: 6.00 Build 0)  -->
<svg version="1.1" id="Layer_1" xmlns="http://www.w3.org/2000/svg" xmlns:xlink="http://www.w3.org/1999/xlink" x="0px"
	y="0px" viewBox="0 0 1068.3 37.8" style="enable-background:new 0 0 1068.3 37.8;" xml:space="preserve" fill="#fff">
	<path d="M0,0c0,0,0,13.5,0,13.5c9.5,3,19,6.1,28.4,9.2c15.2,5,30.8,7.5,46.7,5.9c14.3-1.4,28.4-4,42.6-6.1
	c11.2-1.6,22.3-3.7,33.7-1.8c17.1,2.8,34.3,5.3,51.5,7.7c1.4,0.2,3.4-0.2,4.5-1.1c5.9-4.2,12.2-5.5,19.1-3.7
	c12.7,3.3,25.4,6.7,38.1,9.7c7.2,1.7,14.6,3.2,22,4.1c8.4,1,16.7-1,24.8-3c18.3-4.6,36.8-7.1,55.8-5.8c21.4,1.4,42.7-0.6,63.6-5.7
	c14.2-3.5,28.5-5.9,43.1-5.4c3.3,0.1,6.6-0.5,9.9-1.1c5.9-1.2,11.7-3.1,17.9-2.6c6.9,0.6,13.8,1,20.6,1.7
	c12.6,1.3,25.1,2.7,37.6,4.3c13,1.6,26,3.5,39,5.3c6.3,0.9,12.5,1.7,18.6-1.3c1.5-0.8,3.6-1.1,5.3-0.9c4.5,0.4,9.1,1.1,13.6,1.7
	c6.4,1,12.8,2.1,19.2,0.2c4.6-1.3,9.4-2.2,14-3.4c9.1-2.2,18.1-2.7,27.2,0.2c7.2,2.3,14.7,2,22.2,0.1c11.1-2.8,22.2-5.6,33.3-8.2
	c6.7-1.6,13.5-3.2,20.5-1.9c20.1,3.9,40.2,7.8,60.4,11.7c8.4,1.6,16.8,3.1,25.5,2.4c7.5-0.6,15.1-1,22.7-1c18.7-0.1,37.5-0.4,56-3.1
	c11.9-1.7,23.9-3.3,35.6-5.9c24-5.3,47.6-12.4,72.2-14.3c7.6-0.6,15.3-1.1,22.9-1.6" />
</svg>