<svg viewBox="0 0 200 200" xmlns="http://www.w3.org/2000/svg" id="a"><defs><style>.b{fill:#f7d730;}.b,.c{stroke-width:0px;}.c{fill:#000;}</style></defs><path d="M0,70.62h41.01v58.76H0v-58.76ZM5.91,123.46h29.17v-46.93H5.91v46.93h0Z" class="b"></path><path d="M68.25,96.98h-2.54c-3.33-4.71-6.64-9.38-9.94-14.67h-.02v14.67h-2.8v-20.45h2.54c3.33,4.67,6.63,9.32,9.9,14.58h.06v-14.58h2.8v20.45h0ZM74.91,88.89c.81-2.69,1.63-5.17,2.36-8.33h.06c.82,3.16,1.55,5.64,2.31,8.33h-4.73ZM76.25,76.53l-7.07,20.45h3.04l1.78-5.58h6.17l1.61,5.58h3.92l-6.52-20.45h-2.92ZM89,96.98v-17.71h-5.38v-2.74h14.26v2.74h-5.37v17.71h-3.51ZM99.01,76.53h3.48v20.45h-3.48v-20.45ZM113.31,94.41c-3.66,0-4.94-4.03-4.94-7.95s1.46-7.36,4.94-7.36,4.93,3.59,4.93,7.36-1.28,7.95-4.93,7.95ZM113.31,97.33c5.35,0,8.67-4.76,8.67-10.87,0-5.73-3.68-10.28-8.67-10.28s-8.69,4.56-8.69,10.28c0,6.11,3.34,10.87,8.69,10.87ZM139.42,96.98h-2.54c-3.33-4.71-6.64-9.38-9.93-14.67h-.03v14.67h-2.8v-20.45h2.54c3.33,4.67,6.63,9.32,9.9,14.58h.06v-14.58h2.81v20.45h0ZM146.09,88.89c.82-2.69,1.63-5.17,2.37-8.33h.06c.82,3.16,1.55,5.64,2.3,8.33h-4.73,0ZM147.43,76.53l-7.07,20.45h3.04l1.78-5.58h6.17l1.61,5.58h3.91l-6.52-20.45h-2.92,0ZM157.89,76.53h3.48v17.71h6.92v2.75h-10.4v-20.45ZM66.09,114.09v8.44c-1.87.73-3.83,1.26-5.81,1.26-6.02,0-9.82-4.67-9.82-10.69,0-5.58,3.8-10.46,9.93-10.46,1.9,0,3.8.7,4.97,1.58l-1.14,2.43c-.93-.58-2.4-1.08-3.74-1.08-3.74,0-6.28,2.95-6.28,7.6s2.92,7.71,5.93,7.71c.93,0,1.72-.11,2.46-.5v-6.28h3.5ZM78.63,105.74h-5.85v5.61h5.73v2.75h-5.73v6.6h6.9v2.75h-10.4v-20.46h9.36v2.75ZM89.44,120.87c-3.66,0-4.94-4.03-4.94-7.95s1.46-7.36,4.94-7.36,4.93,3.59,4.93,7.36-1.29,7.95-4.93,7.95ZM89.44,123.79c5.34,0,8.67-4.76,8.67-10.87,0-5.73-3.68-10.29-8.67-10.29s-8.68,4.56-8.68,10.29c0,6.11,3.32,10.87,8.68,10.87ZM114.94,114.09v8.44c-1.87.73-3.82,1.26-5.81,1.26-6.02,0-9.82-4.67-9.82-10.69,0-5.58,3.8-10.46,9.94-10.46,1.9,0,3.8.7,4.96,1.58l-1.14,2.43c-.94-.58-2.39-1.08-3.73-1.08-3.75,0-6.29,2.95-6.29,7.6s2.92,7.71,5.93,7.71c.94,0,1.72-.11,2.46-.5v-6.28h3.5ZM121.67,105.74h1.54c2.07,0,3.24,1.19,3.24,3.3,0,2.74-1.66,3.97-3.33,4.06-.35.04-1.17.06-1.46.09v-7.45h0ZM130.55,123.44l-4.13-8.47c2.25-1.19,3.54-3.63,3.54-6.08,0-3.98-2.43-5.9-6.35-5.9h-5.46v20.46h3.51v-7.71h1.58l3.3,7.71h4.01ZM136.33,115.35c.82-2.69,1.63-5.17,2.37-8.33h.06c.82,3.16,1.55,5.64,2.31,8.33h-4.73,0ZM137.68,102.99l-7.07,20.46h3.04l1.78-5.58h6.17l1.6,5.58h3.92l-6.52-20.46h-2.92ZM153.69,102.99h-5.46v20.46h3.51v-7.71h1.57c4.18,0,6.73-3.39,6.73-6.84,0-3.98-2.43-5.9-6.34-5.9h0ZM153.2,113.09c-.36.03-1.22.06-1.46.08v-7.44h1.57c2.04,0,3.22,1.19,3.22,3.3,0,2.74-1.66,3.97-3.33,4.06ZM176.27,123.44h-3.51v-9.84h-7.28v9.84h-3.47v-20.46h3.47v7.86h7.28v-7.8h3.51v20.4h0ZM179.63,102.99h3.48v20.46h-3.48v-20.46ZM198.89,106.7c-.85-.53-2.25-1.14-3.6-1.14-3.57,0-6.16,2.95-6.16,7.6s2.86,7.71,6.25,7.71c1.24,0,2.46-.36,3.51-1.02l.97,2.54c-1.06.73-2.92,1.4-4.61,1.4-6.02,0-9.82-4.67-9.82-10.69,0-5.58,3.77-10.46,9.87-10.46,1.82,0,3.51.76,4.71,1.58l-1.11,2.49h0Z" class="c"></path></svg>